<?xml version="1.0" standalone="no"?>
<!DOCTYPE svg PUBLIC "-//W3C//DTD SVG 20010904//EN"
 "http://www.w3.org/TR/2001/REC-SVG-20010904/DTD/svg10.dtd">
<svg version="1.0" xmlns="http://www.w3.org/2000/svg"
 width="40" height="50" viewBox="0 0 1048.000000 1665.000000"
 preserveAspectRatio="xMidYMid meet">

<g transform="translate(0.000000,1665.000000) scale(0.100000,-0.100000)"
fill="#FFF" stroke="none">
<path d="M0 15705 l0 -935 2110 0 2110 0 0 -3553 c0 -3116 -2 -3568 -15 -3675
-93 -752 -381 -1305 -918 -1766 -300 -258 -744 -525 -1347 -811 -113 -54 -470
-219 -795 -367 -324 -147 -593 -272 -598 -277 -12 -12 38 -128 179 -411 304
-614 625 -1132 812 -1313 l39 -38 624 289 c1185 550 1524 720 1972 989 1466
880 2044 1926 2137 3868 6 134 10 1791 10 4573 l0 4362 -3160 0 -3160 0 0
-935z"/>
<path d="M8320 11873 c2 -4867 2 -4848 -36 -5203 -155 -1471 -712 -2599 -1729
-3509 -502 -449 -1088 -842 -1945 -1306 -209 -112 -1246 -632 -1359 -680 l-44
-19 39 -34 c188 -162 867 -555 1640 -949 l342 -173 398 198 c1016 507 1714
930 2319 1407 1504 1186 2258 2631 2465 4725 46 473 44 175 47 5413 l3 4897
-1070 0 -1071 0 1 -4767z"/>
</g>
</svg>
